<svg width="24" height="18" viewBox="0 0 24 18" fill="none" xmlns="http://www.w3.org/2000/svg">
<path d="M14 8H21V3H14V8ZM17.5 6.75L15 5V4L17.5 5.75L20 4V5L17.5 6.75ZM2 18C1.45 18 0.979333 17.8043 0.588 17.413C0.196 17.021 0 16.55 0 16V2C0 1.45 0.196 0.979 0.588 0.587C0.979333 0.195667 1.45 0 2 0H22C22.55 0 23.021 0.195667 23.413 0.587C23.8043 0.979 24 1.45 24 2V16C24 16.55 23.8043 17.021 23.413 17.413C23.021 17.8043 22.55 18 22 18H2ZM9 11C9.83333 11 10.5417 10.7083 11.125 10.125C11.7083 9.54167 12 8.83333 12 8C12 7.16667 11.7083 6.45833 11.125 5.875C10.5417 5.29167 9.83333 5 9 5C8.16667 5 7.45833 5.29167 6.875 5.875C6.29167 6.45833 6 7.16667 6 8C6 8.83333 6.29167 9.54167 6.875 10.125C7.45833 10.7083 8.16667 11 9 11ZM2.1 16H15.9C15.2 14.75 14.2333 13.7707 13 13.062C11.7667 12.354 10.4333 12 9 12C7.56667 12 6.23333 12.354 5 13.062C3.76667 13.7707 2.8 14.75 2.1 16Z" fill="#10D00C"/>
</svg>
